<svg xmlns="http://www.w3.org/2000/svg" version="1.1" xmlns:xlink="http://www.w3.org/1999/xlink" width="290.7" height="261"><svg version="1.1" id="SvgjsSvg1040" xmlns="http://www.w3.org/2000/svg" xmlns:xlink="http://www.w3.org/1999/xlink" x="0px" y="0px" viewBox="0 0 290.7 261" style="enable-background:new 0 0 290.7 261;" xml:space="preserve">
<style type="text/css">
	.st0{fill:none;stroke:#3D3D3D;stroke-width:10.5;}
	.st1{fill:none;stroke:#F97316;stroke-width:10.5;stroke-miterlimit:10;}
	.st2{fill:#F97316;}
	.st3{fill:#3D3D3D;}
</style>
<g>
	<line class="st0" x1="0" y1="53.9" x2="202.8" y2="53.9"></line>
	<line class="st1" x1="242.1" y1="53.9" x2="286.7" y2="53.9"></line>
	<line class="st0" x1="0" y1="191.3" x2="137.9" y2="191.3"></line>
	<line class="st0" x1="5.5" y1="193.8" x2="5.5" y2="52.9"></line>
	<g>
		<path class="st2" d="M31,141.1c10.1,7.1,21,7.4,25,7c5.2-0.4,9.6-4,9.1-8.8c-0.4-5-4.2-7.2-9.1-9c-13.7-5-26-12-26-26.7
			s10.2-26,24.8-26.7c4.5-0.2,10.5-0.2,21.8,3.7l-2.1,16.8c-9.7-3.9-15.2-3.8-17.9-3.7c-6.3,0.4-9.1,4.9-8.7,9.8
			c0.5,4.9,4.8,7.1,9.8,8.8c13.6,5,25.4,12.9,25.4,26.9c0,14.6-10.1,25.8-26.5,26.6c-4.9,0.4-15.8-0.2-27.7-6.4L31,141.1z"></path>
		<path class="st2" d="M172.6,76.1h5.5v89h-17.8l0.1-48.9L138,139.7l-22.5-23.5v48.9H97.7v-89h5.6l34.6,38.5L172.6,76.1z"></path>
		<path class="st2" d="M223.9,165.1h-26.1V77.4h26.1C282.3,77.4,282.3,165.1,223.9,165.1z M215.4,94.9v52.6h8.6
			c34.1,0,34.1-52.6,0-52.6H215.4z"></path>
	</g>
	<g>
		<path class="st3" d="M152.8,215.9v-31.4h12.4c12.2,0,12.2,19.4,0,19.4h-6.1v12H152.8z M164.6,197.8c4.2,0,4.2-7,0-7h-5.5v7H164.6z
			"></path>
		<path class="st3" d="M179.3,215.9v-31.4h6.3v31.4H179.3z"></path>
		<path class="st3" d="M207.2,190.4c-12.4,0-12.4,19.2,0,19.2c2.7,0,4.9-0.8,6.1-1.4l0.8,6.5c-1.9,0.8-4.7,1.3-6.9,1.3
			c-21.3,0-21.3-31.9,0-31.9c2.2,0,4.3,0.4,6.2,1.2l-0.7,6.5C211.5,191.2,209.9,190.4,207.2,190.4z"></path>
		<path class="st3" d="M219.1,184.4h6.3c0,4.2,0,8.4,0,12.5l7.9-12.5h7.3l-10.1,15.5l11.1,15.9h-7.8l-8.4-12.3c0,4,0,8.3,0,12.3
			h-6.3L219.1,184.4L219.1,184.4z"></path>
		<path class="st3" d="M245.7,215.9v-31.4h15.7v6.3h-9.5v6.3h8.3v6.3h-8.3v6.3h10v6.3L245.7,215.9L245.7,215.9L245.7,215.9z"></path>
		<path class="st3" d="M283.5,215.9l-6.3-12h-3v12h-6.3v-31.4h12.4c11.2,0,12.3,15.8,3.1,18.5l7.3,13h-7.2V215.9z M274.1,197.8h5.5
			c4.3,0,4.3-7,0-7h-5.5V197.8z"></path>
	</g>
</g>
</svg><style>@media (prefers-color-scheme: light) { :root { filter: none; } }
@media (prefers-color-scheme: dark) { :root { filter: none; } }
</style></svg>